<svg xmlns="http://www.w3.org/2000/svg" width="352.177" height="183" viewBox="0 0 352.177 183">
  <g id="Group_36" data-name="Group 36" transform="translate(-185.806 -2314.044)">
    <g id="Group_27" data-name="Group 27" transform="translate(-2479.169 2787.76) rotate(-90)">
      <line id="Line_23" data-name="Line 23" y2="312.892" transform="translate(319.716 2666.5)" fill="none" stroke="#52ded4" stroke-width="15"/>
    </g>
    <text id="RO" transform="translate(297.716 2458.044)" fill="#fff" stroke="#3d3d3d" stroke-width="5" font-size="147" font-family="Rockwell"><tspan x="0" y="0">RO</tspan></text>
    <g id="Group_32" data-name="Group 32">
      <path id="Path_22" data-name="Path 22" d="M6762.584,2720.666s-17.877,30.944-149.385,22.663-121.146-62.215-121.146-62.215" transform="translate(-6277.234 -277.643)" fill="none" stroke="#3d3d3d" stroke-width="2"/>
      <path id="Path_23" data-name="Path 23" d="M6768.737,2721.016s-18.037,33.426-152.781,24.81-126.014-64.244-126.014-64.244" transform="translate(-6283.387 -277.643)" fill="none" stroke="#3d3d3d" stroke-width="2"/>
      <path id="Path_24" data-name="Path 24" d="M6776.358,2720.555s-18.3,37.07-157.023,28.077-130.816-67.206-130.816-67.206" transform="translate(-6291.007 -277.643)" fill="none" stroke="#3d3d3d" stroke-width="2"/>
      <path id="Path_25" data-name="Path 25" d="M6783.453,2720.647s-18.816,40.125-161.09,30.759-137.408-69.517-137.408-69.517" transform="translate(-6298.103 -277.643)" fill="none" stroke="#3d3d3d" stroke-width="2"/>
    </g>
    <g id="Group_34" data-name="Group 34" transform="translate(203.227 2345.228)">
      <path id="Path_22-2" data-name="Path 22" d="M6574.869,2676.66s-14.384-6.091-48.437-1.632-34.289,33.52-34.289,33.52" transform="translate(-6480.637 -2649.631)" fill="none" stroke="#3d3d3d" stroke-width="2"/>
      <path id="Path_23-2" data-name="Path 23" d="M6581.981,2678.25v-.769c.163-.03-17.573-6.2-54.329-1.579-38.735,6.061-37.288,39.992-37.288,39.992" transform="translate(-6487.067 -2656.87)" fill="none" stroke="#3d3d3d" stroke-width="2"/>
      <path id="Path_24-2" data-name="Path 24" d="M6589.482,2683.184s-26.544-9.319-62.827-1.617-38.189,44.773-38.189,44.773" transform="translate(-6494.235 -2667.317)" fill="none" stroke="#3d3d3d" stroke-width="2"/>
      <path id="Path_25-2" data-name="Path 25" d="M6595.886,2691.2s-12.975-11-65.8-3.588l-.17.024c-47.775,10.7-44.966,50.588-44.966,50.588" transform="translate(-6501.328 -2679.044)" fill="none" stroke="#3d3d3d" stroke-width="2"/>
    </g>
    <path id="Path_30" data-name="Path 30" d="M0,0H58s2.641,2.157,25.718,7.422,65.535,7.664,65.535,7.664L0,15.5Z" transform="translate(186.729 2460.487)" fill="#fff"/>
    <path id="Path_31" data-name="Path 31" d="M149.253,0,75.207.14S72.367,2,55.281,7.182,0,15.085,0,15.085l149.253.415Z" transform="translate(388.729 2460.487)" fill="#fff"/>
  </g>
</svg>
